<svg width="13" height="13" viewBox="0 0 13 13" fill="none" xmlns="http://www.w3.org/2000/svg">
<path fill-rule="evenodd" clip-rule="evenodd" d="M6.5 0C7.75357 0 8.79048 0.40056 9.73452 1.07423C9.75 1.07423 9.75 1.09244 9.75 1.11064C9.75 1.12885 9.73452 1.12885 9.71905 1.12885C8.5119 0.819328 6.68571 2.03922 6.51548 2.16667H6.5H6.48452C6.31429 2.03922 4.4881 0.819328 3.28095 1.12885C3.26548 1.12885 3.25 1.12885 3.25 1.11064C3.25 1.09244 3.25 1.07423 3.26548 1.07423C4.20952 0.40056 5.24643 0 6.5 0ZM10.6537 11.4392C11.6287 10.4302 8.40504 6.86712 6.5023 5.41667C6.5023 5.41667 6.48658 5.41667 6.48658 5.43243C4.59957 6.86712 1.3602 10.4302 2.35088 11.4392C3.45164 12.4167 4.91407 13 6.5023 13C8.09054 13 9.53724 12.4167 10.6537 11.4392ZM1.78082 2.19751C1.7734 2.19751 1.76969 2.20158 1.76598 2.20566C1.76227 2.20973 1.75856 2.2138 1.75114 2.2138C0.667808 3.40327 0 5.04896 0 6.8576C0 8.34035 0.460046 9.72534 1.21689 10.817C1.21689 10.8333 1.23174 10.8333 1.24658 10.8333C1.26142 10.8333 1.26142 10.817 1.24658 10.8007C0.78653 9.25282 3.11644 5.52149 4.31849 3.95726L4.33333 3.94097C4.33333 3.93257 4.33333 3.9285 4.3313 3.92653C4.32939 3.92467 4.32568 3.92467 4.31849 3.92467C2.49315 1.93681 1.8847 2.14863 1.78082 2.19751ZM8.66667 3.93424L8.68151 3.91793C10.5068 1.94443 11.1153 2.15646 11.2043 2.18908C11.2105 2.18908 11.2141 2.18908 11.2173 2.19025C11.2217 2.1919 11.2253 2.19586 11.234 2.20539C12.3322 3.39602 13 5.04332 13 6.85372C13 8.33792 12.54 9.72426 11.7831 10.817C11.7831 10.8333 11.7683 10.8333 11.7534 10.8333V10.8007C12.1986 9.25127 9.88356 5.5163 8.68151 3.95055C8.66667 3.95055 8.66667 3.93424 8.66667 3.93424Z" fill="white"/>
</svg>
