<?xml version="1.0" encoding="utf-8"?>
<!-- Generator: Adobe Illustrator 21.0.2, SVG Export Plug-In . SVG Version: 6.00 Build 0)  -->
<svg version="1.1" id="Capa_1" xmlns="http://www.w3.org/2000/svg" xmlns:xlink="http://www.w3.org/1999/xlink" x="0px" y="0px"
	 viewBox="0 0 195.6 196.5" style="enable-background:new 0 0 195.6 196.5;" xml:space="preserve">
<style type="text/css">
	.st0{fill:#515151;}
	.st1{fill:none;stroke:#000000;stroke-width:6;stroke-miterlimit:10;}
	.st2{fill:none;stroke:#000000;stroke-width:6;stroke-linecap:round;stroke-miterlimit:10;}
</style>
<path class="st0" d="M144.8,195.6h-94C22.7,195.6,0,172.8,0,144.8v-94C0,22.7,22.7,0,50.8,0h94c28.1,0,50.8,22.7,50.8,50.8v94
	C195.6,172.8,172.8,195.6,144.8,195.6z"/>
<g>
	<path class="st1" d="M134.1,118.9H65.8c-6.5,0-11.7-5.2-11.7-11.7V88.4c0-6.5,5.2-11.7,11.7-11.7h68.4c6.5,0,11.7,5.2,11.7,11.7
		v18.7C145.8,113.6,140.6,118.9,134.1,118.9z"/>
	<line class="st2" x1="54.1" y1="56.2" x2="145.8" y2="56.2"/>
	<line class="st2" x1="54.1" y1="139.4" x2="145.8" y2="139.4"/>
</g>
</svg>
