<svg width="21" height="24" viewBox="0 0 21 24" fill="none" xmlns="http://www.w3.org/2000/svg">
<path fill-rule="evenodd" clip-rule="evenodd" d="M17.543 0.799927H3.25729C1.67933 0.799927 0.400146 2.07911 0.400146 3.65707V7.94278C0.400146 9.52074 1.67933 10.7999 3.25729 10.7999H17.543C19.121 10.7999 20.4001 9.52074 20.4001 7.94278V3.65707C20.4001 2.07911 19.121 0.799927 17.543 0.799927ZM1.82878 3.65709C1.82878 2.86811 2.46837 2.22852 3.25735 2.22852H17.5431C18.332 2.22852 18.9716 2.86811 18.9716 3.65709V7.9428C18.9716 8.73178 18.332 9.37137 17.5431 9.37137H3.25735C2.46837 9.37137 1.82878 8.73178 1.82878 7.9428V3.65709ZM3.25729 13.6571H17.543C19.121 13.6571 20.4001 14.9362 20.4001 16.5142V20.7999C20.4001 22.3779 19.121 23.6571 17.543 23.6571H3.25729C1.67933 23.6571 0.400146 22.3779 0.400146 20.7999V16.5142C0.400146 14.9362 1.67933 13.6571 3.25729 13.6571ZM1.82878 16.5141C1.82878 15.7252 2.46837 15.0856 3.25735 15.0856H17.5431C18.332 15.0856 18.9716 15.7252 18.9716 16.5141V20.7999C18.9716 21.5888 18.332 22.2284 17.5431 22.2284H3.25735C2.46837 22.2284 1.82878 21.5888 1.82878 20.7999V16.5141Z" fill="black"/>
</svg>
