<?xml version="1.0" encoding="utf-8"?>
<!-- Generator: Adobe Illustrator 21.0.2, SVG Export Plug-In . SVG Version: 6.00 Build 0)  -->
<svg version="1.1" id="Capa_1" xmlns="http://www.w3.org/2000/svg" xmlns:xlink="http://www.w3.org/1999/xlink" x="0px" y="0px"
	 viewBox="0 0 195.6 194.9" style="enable-background:new 0 0 195.6 194.9;" xml:space="preserve">
<style type="text/css">
	.st0{fill:#303030;}
	.st1{fill:none;stroke:#000000;stroke-width:6;stroke-miterlimit:10;}
</style>
<g>
	<path class="st0" d="M144.8,194.9h-94C22.7,194.9,0,172.2,0,144.1v-94C0,22,22.7-0.7,50.8-0.7h94c28.1,0,50.8,22.7,50.8,50.8v94
		C195.6,172.2,172.9,194.9,144.8,194.9z"/>
	<path class="st1" d="M134.2,87.3H65.8c-6.5,0-11.7-5.2-11.7-11.7V56.9c0-6.5,5.2-11.7,11.7-11.7h68.4c6.5,0,11.7,5.2,11.7,11.7
		v18.7C145.9,82.1,140.6,87.3,134.2,87.3z"/>
	<path class="st1" d="M134.2,150.5H65.8c-6.5,0-11.7-5.2-11.7-11.7v-18.7c0-6.5,5.2-11.7,11.7-11.7h68.4c6.5,0,11.7,5.2,11.7,11.7
		v18.7C145.9,145.2,140.6,150.5,134.2,150.5z"/>
</g>
</svg>
