<?xml version="1.0" encoding="utf-8"?>
<!-- Generator: Adobe Illustrator 21.0.2, SVG Export Plug-In . SVG Version: 6.00 Build 0)  -->
<svg version="1.1" id="Capa_1" xmlns="http://www.w3.org/2000/svg" xmlns:xlink="http://www.w3.org/1999/xlink" x="0px" y="0px"
	 viewBox="0 0 16 16" style="enable-background:new 0 0 16 16;" xml:space="preserve">
<style type="text/css">
	.st0{fill:#FFFFFF;}
</style>
<path class="st0" d="M14.8,0.1C14.9,0.2,15,0.3,15,0.5V8c0,0.2-0.1,0.4-0.3,0.5L14.5,8l0.2,0.5l0,0l0,0l0,0
	c-0.1,0.1-0.3,0.1-0.4,0.1c-0.3,0.1-0.6,0.2-1,0.4c-0.8,0.3-1.9,0.5-2.7,0.5C9.7,9.5,9,9.2,8.3,9l0,0C7.7,8.7,7.1,8.5,6.5,8.5
	C5.8,8.5,4.9,8.7,4.1,9C3.7,9.1,3.4,9.2,3,9.3v6.2C3,15.8,2.8,16,2.5,16S2,15.8,2,15.5v-15C2,0.2,2.2,0,2.5,0S3,0.2,3,0.5v0.3
	c0.2-0.1,0.5-0.2,0.8-0.3C4.6,0.3,5.7,0,6.5,0C7.3,0,8,0.3,8.6,0.5l0,0C9.3,0.8,9.8,1,10.5,1c0.7,0,1.6-0.2,2.4-0.5
	c0.5-0.1,0.9-0.3,1.3-0.5l0,0l0,0h0"/>
</svg>
