<svg width="9" height="2" viewBox="0 0 9 2" fill="none" xmlns="http://www.w3.org/2000/svg">
<path fill-rule="evenodd" clip-rule="evenodd" d="M1.02823 1.875C0.460355 1.875 0 1.45527 0 0.9375C0 0.419733 0.460355 0 1.02823 0C1.59611 0 2.05647 0.419733 2.05647 0.9375C2.05647 1.45527 1.59611 1.875 1.02823 1.875ZM4.4557 1.87512C3.88783 1.87512 3.42747 1.45539 3.42747 0.937622C3.42747 0.419855 3.88783 0.00012207 4.4557 0.00012207C5.02358 0.00012207 5.48394 0.419855 5.48394 0.937622C5.48394 1.45539 5.02358 1.87512 4.4557 1.87512ZM6.85486 0.937622C6.85486 1.45539 7.31522 1.87512 7.8831 1.87512C8.45097 1.87512 8.91133 1.45539 8.91133 0.937622C8.91133 0.419855 8.45097 0.00012207 7.8831 0.00012207C7.31522 0.00012207 6.85486 0.419855 6.85486 0.937622Z" fill="white"/>
</svg>
