<svg width="21" height="19" viewBox="0 0 21 19" fill="none" xmlns="http://www.w3.org/2000/svg">
<path fill-rule="evenodd" clip-rule="evenodd" d="M0.400146 0.828666C0.400146 0.434176 0.719943 0.11438 1.11443 0.11438H19.6859C20.0804 0.11438 20.4001 0.434176 20.4001 0.828666C20.4001 1.22315 20.0804 1.54295 19.6859 1.54295H1.11443C0.719943 1.54295 0.400146 1.22315 0.400146 0.828666ZM17.543 4.40006H3.25729C1.67933 4.40006 0.400146 5.67925 0.400146 7.25721V11.5429C0.400146 13.1209 1.67933 14.4001 3.25729 14.4001H17.543C19.121 14.4001 20.4001 13.1209 20.4001 11.5429V7.25721C20.4001 5.67925 19.121 4.40006 17.543 4.40006ZM1.82886 7.25735C1.82886 6.46837 2.46845 5.82878 3.25743 5.82878H17.5431C18.3321 5.82878 18.9717 6.46837 18.9717 7.25735V11.5431C18.9717 12.332 18.3321 12.9716 17.5431 12.9716H3.25743C2.46845 12.9716 1.82886 12.332 1.82886 11.5431V7.25735ZM1.11443 17.2573C0.719943 17.2573 0.400146 17.5771 0.400146 17.9716C0.400146 18.3661 0.719943 18.6859 1.11443 18.6859H19.6859C20.0804 18.6859 20.4001 18.3661 20.4001 17.9716C20.4001 17.5771 20.0804 17.2573 19.6859 17.2573H1.11443Z" fill="black"/>
</svg>
