<?xml version="1.0" encoding="utf-8"?>
<!-- Generator: Adobe Illustrator 21.0.2, SVG Export Plug-In . SVG Version: 6.00 Build 0)  -->
<svg version="1.1" id="Capa_1" xmlns="http://www.w3.org/2000/svg" xmlns:xlink="http://www.w3.org/1999/xlink" x="0px" y="0px"
	 viewBox="0 0 16 16" style="enable-background:new 0 0 16 16;" xml:space="preserve">
<style type="text/css">
	.st0{fill:#FFFFFF;}
</style>
<path class="st0" d="M3,2.5C3,1.1,4.1,0,5.5,0S8,1.1,8,2.5C8,1.1,9.1,0,10.5,0S13,1.1,13,2.5v0c0,0.1,0,0.3,0,0.5h2c0.6,0,1,0.4,1,1
	v1c0,0.6-0.4,1-1,1H1C0.4,6,0,5.6,0,5V4c0-0.6,0.4-1,1-1h2C3,2.8,3,2.7,3,2.5L3,2.5z M4.1,3H7V2.5C7,1.7,6.3,1,5.5,1S4,1.7,4,2.5
	C4,2.6,4,2.8,4.1,3C4.1,3,4.1,3,4.1,3z M9,3h2.9c0,0,0,0,0-0.1c0-0.2,0-0.3,0-0.4C12,1.7,11.3,1,10.5,1S9,1.7,9,2.5V3z M15,7v7.5
	c0,0.8-0.7,1.5-1.5,1.5l0,0H9V7H15z M2.5,16C1.7,16,1,15.3,1,14.5l0,0V7h6v9H2.5z"/>
</svg>
